<svg xmlns="http://www.w3.org/2000/svg" xmlns:xlink="http://www.w3.org/1999/xlink" width="500" zoomAndPan="magnify"
    viewBox="0 0 375 374.999991" height="500" preserveAspectRatio="xMidYMid meet" version="1.2">
    <defs>
        <clipPath id="a7ad299c4e">
            <path
                d="M 134.796875 49.222656 L 240.269531 49.222656 L 240.269531 225 L 134.796875 225 Z M 134.796875 49.222656 " />
        </clipPath>
        <clipPath id="ab55ce3eae">
            <path
                d="M 204.46875 116.660156 C 206.75 118.773438 210.121094 118.546875 212.527344 116.78125 C 217.765625 112.933594 217.90625 102.582031 216.1875 96.925781 C 234.40625 112.496094 245.097656 138.195312 238.109375 161.792969 C 224.34375 183.867188 206.628906 177.132812 188.210938 189.644531 C 179.386719 195.964844 173.785156 205.363281 172.660156 216.242188 C 172.660156 216.242188 172.835938 224.074219 172.835938 224.074219 C 77.5625 103.1875 192.71875 103.476562 181.015625 49.554688 C 198.609375 59.863281 209.480469 77.425781 205.222656 98.324219 C 204.152344 103.734375 199.621094 112.171875 204.472656 116.664062 Z M 214.671875 146.832031 C 214.671875 132.292969 202.890625 120.503906 188.355469 120.503906 C 153.886719 121.699219 153.011719 171.941406 188.355469 173.160156 C 202.890625 173.160156 214.671875 161.371094 214.671875 146.832031 Z M 214.671875 146.832031 " />
        </clipPath>
        <linearGradient x1="149.885012" gradientTransform="matrix(0.353643,0,0,0.353767,134.79625,49.553709)"
            y1="493.826542" x2="148.197215" gradientUnits="userSpaceOnUse" y2="-0.505989" id="01b3614ca6">
            <stop style="stop-color:#ff2018;stop-opacity:1;" offset="0" />
            <stop style="stop-color:#ff2018;stop-opacity:1;" offset="0.00205995" />
            <stop style="stop-color:#ff2018;stop-opacity:1;" offset="0.0078125" />
            <stop style="stop-color:#ff2118;stop-opacity:1;" offset="0.015625" />
            <stop style="stop-color:#ff2218;stop-opacity:1;" offset="0.0234375" />
            <stop style="stop-color:#ff2318;stop-opacity:1;" offset="0.03125" />
            <stop style="stop-color:#ff2318;stop-opacity:1;" offset="0.0390625" />
            <stop style="stop-color:#ff2418;stop-opacity:1;" offset="0.046875" />
            <stop style="stop-color:#ff2518;stop-opacity:1;" offset="0.0546875" />
            <stop style="stop-color:#ff2618;stop-opacity:1;" offset="0.0625" />
            <stop style="stop-color:#ff2718;stop-opacity:1;" offset="0.0703125" />
            <stop style="stop-color:#ff2818;stop-opacity:1;" offset="0.078125" />
            <stop style="stop-color:#ff2919;stop-opacity:1;" offset="0.0859375" />
            <stop style="stop-color:#ff2919;stop-opacity:1;" offset="0.09375" />
            <stop style="stop-color:#ff2a19;stop-opacity:1;" offset="0.101562" />
            <stop style="stop-color:#ff2b19;stop-opacity:1;" offset="0.109375" />
            <stop style="stop-color:#ff2c19;stop-opacity:1;" offset="0.117187" />
            <stop style="stop-color:#ff2d19;stop-opacity:1;" offset="0.125" />
            <stop style="stop-color:#ff2e19;stop-opacity:1;" offset="0.132812" />
            <stop style="stop-color:#ff2f19;stop-opacity:1;" offset="0.140625" />
            <stop style="stop-color:#ff2f19;stop-opacity:1;" offset="0.148438" />
            <stop style="stop-color:#ff3019;stop-opacity:1;" offset="0.15625" />
            <stop style="stop-color:#ff3119;stop-opacity:1;" offset="0.164062" />
            <stop style="stop-color:#ff3219;stop-opacity:1;" offset="0.171875" />
            <stop style="stop-color:#ff3319;stop-opacity:1;" offset="0.179688" />
            <stop style="stop-color:#ff3419;stop-opacity:1;" offset="0.1875" />
            <stop style="stop-color:#ff3419;stop-opacity:1;" offset="0.195312" />
            <stop style="stop-color:#ff3519;stop-opacity:1;" offset="0.203125" />
            <stop style="stop-color:#ff3619;stop-opacity:1;" offset="0.210938" />
            <stop style="stop-color:#ff3719;stop-opacity:1;" offset="0.21875" />
            <stop style="stop-color:#ff381a;stop-opacity:1;" offset="0.226562" />
            <stop style="stop-color:#ff391a;stop-opacity:1;" offset="0.234375" />
            <stop style="stop-color:#ff3a1a;stop-opacity:1;" offset="0.242188" />
            <stop style="stop-color:#ff3a1a;stop-opacity:1;" offset="0.25" />
            <stop style="stop-color:#ff3b1a;stop-opacity:1;" offset="0.257812" />
            <stop style="stop-color:#ff3c1a;stop-opacity:1;" offset="0.265625" />
            <stop style="stop-color:#ff3d1a;stop-opacity:1;" offset="0.273438" />
            <stop style="stop-color:#ff3e1a;stop-opacity:1;" offset="0.28125" />
            <stop style="stop-color:#ff3f1a;stop-opacity:1;" offset="0.289062" />
            <stop style="stop-color:#ff401a;stop-opacity:1;" offset="0.296875" />
            <stop style="stop-color:#ff401a;stop-opacity:1;" offset="0.304688" />
            <stop style="stop-color:#ff411a;stop-opacity:1;" offset="0.3125" />
            <stop style="stop-color:#ff421a;stop-opacity:1;" offset="0.320312" />
            <stop style="stop-color:#ff431a;stop-opacity:1;" offset="0.328125" />
            <stop style="stop-color:#ff441a;stop-opacity:1;" offset="0.335937" />
            <stop style="stop-color:#ff451a;stop-opacity:1;" offset="0.34375" />
            <stop style="stop-color:#ff461a;stop-opacity:1;" offset="0.351562" />
            <stop style="stop-color:#ff461a;stop-opacity:1;" offset="0.359375" />
            <stop style="stop-color:#ff471b;stop-opacity:1;" offset="0.367187" />
            <stop style="stop-color:#ff481b;stop-opacity:1;" offset="0.375" />
            <stop style="stop-color:#ff491b;stop-opacity:1;" offset="0.382812" />
            <stop style="stop-color:#ff4a1b;stop-opacity:1;" offset="0.390625" />
            <stop style="stop-color:#ff4b1b;stop-opacity:1;" offset="0.398437" />
            <stop style="stop-color:#ff4c1b;stop-opacity:1;" offset="0.40625" />
            <stop style="stop-color:#ff4c1b;stop-opacity:1;" offset="0.414062" />
            <stop style="stop-color:#ff4d1b;stop-opacity:1;" offset="0.421875" />
            <stop style="stop-color:#ff4e1b;stop-opacity:1;" offset="0.429687" />
            <stop style="stop-color:#ff4f1b;stop-opacity:1;" offset="0.4375" />
            <stop style="stop-color:#ff501b;stop-opacity:1;" offset="0.445312" />
            <stop style="stop-color:#ff511b;stop-opacity:1;" offset="0.453125" />
            <stop style="stop-color:#ff521b;stop-opacity:1;" offset="0.460937" />
            <stop style="stop-color:#ff521b;stop-opacity:1;" offset="0.46875" />
            <stop style="stop-color:#ff531b;stop-opacity:1;" offset="0.476562" />
            <stop style="stop-color:#ff541b;stop-opacity:1;" offset="0.484375" />
            <stop style="stop-color:#ff551b;stop-opacity:1;" offset="0.492187" />
            <stop style="stop-color:#ff561b;stop-opacity:1;" offset="0.5" />
            <stop style="stop-color:#ff571c;stop-opacity:1;" offset="0.507812" />
            <stop style="stop-color:#ff581c;stop-opacity:1;" offset="0.515625" />
            <stop style="stop-color:#ff581c;stop-opacity:1;" offset="0.523438" />
            <stop style="stop-color:#ff591c;stop-opacity:1;" offset="0.53125" />
            <stop style="stop-color:#ff5a1c;stop-opacity:1;" offset="0.539062" />
            <stop style="stop-color:#ff5b1c;stop-opacity:1;" offset="0.546875" />
            <stop style="stop-color:#ff5c1c;stop-opacity:1;" offset="0.554688" />
            <stop style="stop-color:#ff5d1c;stop-opacity:1;" offset="0.5625" />
            <stop style="stop-color:#ff5d1c;stop-opacity:1;" offset="0.570312" />
            <stop style="stop-color:#ff5e1c;stop-opacity:1;" offset="0.578125" />
            <stop style="stop-color:#ff5f1c;stop-opacity:1;" offset="0.585938" />
            <stop style="stop-color:#ff601c;stop-opacity:1;" offset="0.59375" />
            <stop style="stop-color:#ff611c;stop-opacity:1;" offset="0.601562" />
            <stop style="stop-color:#ff621c;stop-opacity:1;" offset="0.609375" />
            <stop style="stop-color:#ff631c;stop-opacity:1;" offset="0.617188" />
            <stop style="stop-color:#ff631c;stop-opacity:1;" offset="0.625" />
            <stop style="stop-color:#ff641c;stop-opacity:1;" offset="0.632812" />
            <stop style="stop-color:#ff651c;stop-opacity:1;" offset="0.640625" />
            <stop style="stop-color:#ff661d;stop-opacity:1;" offset="0.648438" />
            <stop style="stop-color:#ff671d;stop-opacity:1;" offset="0.65625" />
            <stop style="stop-color:#ff681d;stop-opacity:1;" offset="0.664062" />
            <stop style="stop-color:#ff691d;stop-opacity:1;" offset="0.671875" />
            <stop style="stop-color:#ff691d;stop-opacity:1;" offset="0.679688" />
            <stop style="stop-color:#ff6a1d;stop-opacity:1;" offset="0.6875" />
            <stop style="stop-color:#ff6b1d;stop-opacity:1;" offset="0.695312" />
            <stop style="stop-color:#ff6c1d;stop-opacity:1;" offset="0.703125" />
            <stop style="stop-color:#ff6d1d;stop-opacity:1;" offset="0.710938" />
            <stop style="stop-color:#ff6e1d;stop-opacity:1;" offset="0.71875" />
            <stop style="stop-color:#ff6f1d;stop-opacity:1;" offset="0.726562" />
            <stop style="stop-color:#ff6f1d;stop-opacity:1;" offset="0.734375" />
            <stop style="stop-color:#ff701d;stop-opacity:1;" offset="0.742188" />
            <stop style="stop-color:#ff711d;stop-opacity:1;" offset="0.75" />
            <stop style="stop-color:#ff721d;stop-opacity:1;" offset="0.757812" />
            <stop style="stop-color:#ff731d;stop-opacity:1;" offset="0.765625" />
            <stop style="stop-color:#ff741d;stop-opacity:1;" offset="0.773438" />
            <stop style="stop-color:#ff751d;stop-opacity:1;" offset="0.78125" />
            <stop style="stop-color:#ff751e;stop-opacity:1;" offset="0.789062" />
            <stop style="stop-color:#ff761e;stop-opacity:1;" offset="0.796875" />
            <stop style="stop-color:#ff771e;stop-opacity:1;" offset="0.804688" />
            <stop style="stop-color:#ff781e;stop-opacity:1;" offset="0.8125" />
            <stop style="stop-color:#ff791e;stop-opacity:1;" offset="0.820312" />
            <stop style="stop-color:#ff7a1e;stop-opacity:1;" offset="0.828125" />
            <stop style="stop-color:#ff7b1e;stop-opacity:1;" offset="0.835938" />
            <stop style="stop-color:#ff7b1e;stop-opacity:1;" offset="0.84375" />
            <stop style="stop-color:#ff7c1e;stop-opacity:1;" offset="0.851562" />
            <stop style="stop-color:#ff7d1e;stop-opacity:1;" offset="0.859375" />
            <stop style="stop-color:#ff7e1e;stop-opacity:1;" offset="0.867188" />
            <stop style="stop-color:#ff7f1e;stop-opacity:1;" offset="0.875" />
            <stop style="stop-color:#ff801e;stop-opacity:1;" offset="0.882812" />
            <stop style="stop-color:#ff811e;stop-opacity:1;" offset="0.890625" />
            <stop style="stop-color:#ff811e;stop-opacity:1;" offset="0.898438" />
            <stop style="stop-color:#ff821e;stop-opacity:1;" offset="0.90625" />
            <stop style="stop-color:#ff831e;stop-opacity:1;" offset="0.914062" />
            <stop style="stop-color:#ff841e;stop-opacity:1;" offset="0.921875" />
            <stop style="stop-color:#ff851f;stop-opacity:1;" offset="0.929688" />
            <stop style="stop-color:#ff861f;stop-opacity:1;" offset="0.9375" />
            <stop style="stop-color:#ff871f;stop-opacity:1;" offset="0.945312" />
            <stop style="stop-color:#ff871f;stop-opacity:1;" offset="0.953125" />
            <stop style="stop-color:#ff881f;stop-opacity:1;" offset="0.960938" />
            <stop style="stop-color:#ff891f;stop-opacity:1;" offset="0.96875" />
            <stop style="stop-color:#ff8a1f;stop-opacity:1;" offset="0.976562" />
            <stop style="stop-color:#ff8b1f;stop-opacity:1;" offset="0.984375" />
            <stop style="stop-color:#ff8c1f;stop-opacity:1;" offset="0.992188" />
            <stop style="stop-color:#ff8c1f;stop-opacity:1;" offset="0.99794" />
            <stop style="stop-color:#ff8d1f;stop-opacity:1;" offset="1" />
        </linearGradient>
        <clipPath id="64f3a9153b">
            <path d="M 178 178 L 233 178 L 233 240.765625 L 178 240.765625 Z M 178 178 " />
        </clipPath>
    </defs>
    <g id="05b4f6e083">
        <g clip-rule="nonzero" clip-path="url(#a7ad299c4e)">
            <g clip-rule="nonzero" clip-path="url(#ab55ce3eae)">
                <path style=" stroke:none;fill-rule:nonzero;fill:url(#01b3614ca6);"
                    d="M 134.796875 49.554688 L 134.796875 224.074219 L 240.269531 224.074219 L 240.269531 49.554688 Z M 134.796875 49.554688 " />
            </g>
        </g>
        <g clip-rule="nonzero" clip-path="url(#64f3a9153b)">
            <path style=" stroke:none;fill-rule:nonzero;fill:#00994b;fill-opacity:1;"
                d="M 232.203125 178.441406 C 232.445312 178.683594 230.753906 181.292969 230.488281 181.8125 C 220.71875 202.113281 207.707031 223.867188 190.398438 239.214844 C 189.621094 239.90625 188.992188 240.46875 187.84375 240.433594 C 186.835938 240.398438 185.046875 238.789062 184.308594 238.023438 C 177.679688 231.101562 177.734375 216.472656 181.648438 207.816406 C 190.054688 189.230469 209.015625 189.21875 225.128906 181.984375 C 227.539062 180.898438 229.738281 179.386719 232.203125 178.441406 Z M 186.246094 225.46875 L 208.175781 199.34375 C 199.199219 206.03125 187.773438 213.375 186.246094 225.46875 Z M 186.246094 225.46875 " />
        </g>
        <g style="fill:#39b54a;fill-opacity:0.4;">
            <g transform="translate(8.833028, 295.685885)">
                <path style="stroke:none"
                    d="M 15.03125 0 L 4.34375 0 L 4.34375 -40.15625 L 28.0625 -40.15625 L 28.0625 -31.453125 L 15.03125 -31.453125 L 15.03125 -23.78125 L 27.046875 -23.78125 L 27.046875 -15.078125 L 15.03125 -15.078125 Z M 15.03125 0 " />
            </g>
        </g>
        <g style="fill:#39b54a;fill-opacity:0.4;">
            <g transform="translate(44.946072, 295.685885)">
                <path style="stroke:none"
                    d="M 4.34375 0 L 4.34375 -40.15625 L 15.25 -40.15625 L 15.25 0 Z M 4.34375 0 " />
            </g>
        </g>
        <g style="fill:#39b54a;fill-opacity:0.4;">
            <g transform="translate(70.321135, 295.685885)">
                <path style="stroke:none"
                    d="M 17.5 -40.15625 C 21.144531 -40.15625 24.175781 -39.707031 26.59375 -38.8125 C 29.007812 -37.925781 30.820312 -36.601562 32.03125 -34.84375 C 33.25 -33.09375 33.859375 -30.910156 33.859375 -28.296875 C 33.859375 -26.660156 33.582031 -25.171875 33.03125 -23.828125 C 32.488281 -22.492188 31.707031 -21.300781 30.6875 -20.25 C 29.675781 -19.195312 28.460938 -18.28125 27.046875 -17.5 L 38.75 0 L 26.453125 0 L 17.9375 -14.609375 L 15.1875 -14.609375 L 15.1875 0 L 4.34375 0 L 4.34375 -40.15625 Z M 17.328125 -31.9375 L 15.1875 -31.9375 L 15.1875 -22.765625 L 17.21875 -22.765625 C 18.882812 -22.765625 20.25 -23.128906 21.3125 -23.859375 C 22.375 -24.597656 22.90625 -25.910156 22.90625 -27.796875 C 22.90625 -29.097656 22.460938 -30.113281 21.578125 -30.84375 C 20.703125 -31.570312 19.285156 -31.9375 17.328125 -31.9375 Z M 17.328125 -31.9375 " />
            </g>
        </g>
        <g style="fill:#39b54a;fill-opacity:0.4;">
            <g transform="translate(114.17871, 295.685885)">
                <path style="stroke:none"
                    d="M 28.1875 0 L 4.34375 0 L 4.34375 -40.15625 L 28.1875 -40.15625 L 28.1875 -31.453125 L 15.1875 -31.453125 L 15.1875 -25.125 L 27.21875 -25.125 L 27.21875 -16.421875 L 15.1875 -16.421875 L 15.1875 -8.84375 L 28.1875 -8.84375 Z M 28.1875 0 " />
            </g>
        </g>
        <g style="fill:#ff5a1c;fill-opacity:1;">
            <g transform="translate(8.833028, 295.685885)">
                <path style="stroke:none"
                    d="M 15.03125 0 L 4.34375 0 L 4.34375 -40.15625 L 28.0625 -40.15625 L 28.0625 -31.453125 L 15.03125 -31.453125 L 15.03125 -23.78125 L 27.046875 -23.78125 L 27.046875 -15.078125 L 15.03125 -15.078125 Z M 15.03125 0 " />
            </g>
        </g>
        <g style="fill:#ff5a1c;fill-opacity:1;">
            <g transform="translate(44.946072, 295.685885)">
                <path style="stroke:none"
                    d="M 4.34375 0 L 4.34375 -40.15625 L 15.25 -40.15625 L 15.25 0 Z M 4.34375 0 " />
            </g>
        </g>
        <g style="fill:#ff5a1c;fill-opacity:1;">
            <g transform="translate(70.321135, 295.685885)">
                <path style="stroke:none"
                    d="M 17.5 -40.15625 C 21.144531 -40.15625 24.175781 -39.707031 26.59375 -38.8125 C 29.007812 -37.925781 30.820312 -36.601562 32.03125 -34.84375 C 33.25 -33.09375 33.859375 -30.910156 33.859375 -28.296875 C 33.859375 -26.660156 33.582031 -25.171875 33.03125 -23.828125 C 32.488281 -22.492188 31.707031 -21.300781 30.6875 -20.25 C 29.675781 -19.195312 28.460938 -18.28125 27.046875 -17.5 L 38.75 0 L 26.453125 0 L 17.9375 -14.609375 L 15.1875 -14.609375 L 15.1875 0 L 4.34375 0 L 4.34375 -40.15625 Z M 17.328125 -31.9375 L 15.1875 -31.9375 L 15.1875 -22.765625 L 17.21875 -22.765625 C 18.882812 -22.765625 20.25 -23.128906 21.3125 -23.859375 C 22.375 -24.597656 22.90625 -25.910156 22.90625 -27.796875 C 22.90625 -29.097656 22.460938 -30.113281 21.578125 -30.84375 C 20.703125 -31.570312 19.285156 -31.9375 17.328125 -31.9375 Z M 17.328125 -31.9375 " />
            </g>
        </g>
        <g style="fill:#ff5a1c;fill-opacity:1;">
            <g transform="translate(114.17871, 295.685885)">
                <path style="stroke:none"
                    d="M 28.1875 0 L 4.34375 0 L 4.34375 -40.15625 L 28.1875 -40.15625 L 28.1875 -31.453125 L 15.1875 -31.453125 L 15.1875 -25.125 L 27.21875 -25.125 L 27.21875 -16.421875 L 15.1875 -16.421875 L 15.1875 -8.84375 L 28.1875 -8.84375 Z M 28.1875 0 " />
            </g>
        </g>
        <g style="fill:#39b54a;fill-opacity:0.4;">
            <g transform="translate(153.789418, 295.685885)">
                <path style="stroke:none"
                    d="M 22.0625 0 L 11.203125 0 L 11.203125 -31.28125 L 1.40625 -31.28125 L 1.40625 -40.15625 L 31.828125 -40.15625 L 31.828125 -31.28125 L 22.0625 -31.28125 Z M 22.0625 0 " />
            </g>
        </g>
        <g style="fill:#39b54a;fill-opacity:0.4;">
            <g transform="translate(192.813527, 295.685885)">
                <path style="stroke:none"
                    d="M 17.5 -40.15625 C 21.144531 -40.15625 24.175781 -39.707031 26.59375 -38.8125 C 29.007812 -37.925781 30.820312 -36.601562 32.03125 -34.84375 C 33.25 -33.09375 33.859375 -30.910156 33.859375 -28.296875 C 33.859375 -26.660156 33.582031 -25.171875 33.03125 -23.828125 C 32.488281 -22.492188 31.707031 -21.300781 30.6875 -20.25 C 29.675781 -19.195312 28.460938 -18.28125 27.046875 -17.5 L 38.75 0 L 26.453125 0 L 17.9375 -14.609375 L 15.1875 -14.609375 L 15.1875 0 L 4.34375 0 L 4.34375 -40.15625 Z M 17.328125 -31.9375 L 15.1875 -31.9375 L 15.1875 -22.765625 L 17.21875 -22.765625 C 18.882812 -22.765625 20.25 -23.128906 21.3125 -23.859375 C 22.375 -24.597656 22.90625 -25.910156 22.90625 -27.796875 C 22.90625 -29.097656 22.460938 -30.113281 21.578125 -30.84375 C 20.703125 -31.570312 19.285156 -31.9375 17.328125 -31.9375 Z M 17.328125 -31.9375 " />
            </g>
        </g>
        <g style="fill:#39b54a;fill-opacity:0.4;">
            <g transform="translate(236.671102, 295.685885)">
                <path style="stroke:none"
                    d="M 28.96875 0 L 27 -7.53125 L 13.953125 -7.53125 L 11.921875 0 L 0 0 L 13.09375 -40.3125 L 27.578125 -40.3125 L 40.84375 0 Z M 24.75 -16.421875 L 23.015625 -23.015625 C 22.828125 -23.734375 22.5625 -24.753906 22.21875 -26.078125 C 21.875 -27.398438 21.53125 -28.769531 21.1875 -30.1875 C 20.851562 -31.613281 20.59375 -32.785156 20.40625 -33.703125 C 20.238281 -32.785156 20.003906 -31.65625 19.703125 -30.3125 C 19.398438 -28.96875 19.085938 -27.632812 18.765625 -26.3125 C 18.453125 -24.988281 18.175781 -23.890625 17.9375 -23.015625 L 16.203125 -16.421875 Z M 24.75 -16.421875 " />
            </g>
        </g>
        <g style="fill:#39b54a;fill-opacity:0.4;">
            <g transform="translate(283.302426, 295.685885)">
                <path style="stroke:none"
                    d="M 22.21875 -31.828125 C 20.9375 -31.828125 19.789062 -31.554688 18.78125 -31.015625 C 17.78125 -30.484375 16.921875 -29.703125 16.203125 -28.671875 C 15.492188 -27.648438 14.945312 -26.398438 14.5625 -24.921875 C 14.1875 -23.453125 14 -21.78125 14 -19.90625 C 14 -17.382812 14.320312 -15.257812 14.96875 -13.53125 C 15.613281 -11.8125 16.585938 -10.515625 17.890625 -9.640625 C 19.203125 -8.765625 20.847656 -8.328125 22.828125 -8.328125 C 24.617188 -8.328125 26.34375 -8.570312 28 -9.0625 C 29.65625 -9.5625 31.328125 -10.15625 33.015625 -10.84375 L 33.015625 -1.671875 C 31.234375 -0.890625 29.414062 -0.328125 27.5625 0.015625 C 25.707031 0.367188 23.734375 0.546875 21.640625 0.546875 C 17.285156 0.546875 13.71875 -0.316406 10.9375 -2.046875 C 8.164062 -3.773438 6.125 -6.175781 4.8125 -9.25 C 3.507812 -12.332031 2.859375 -15.90625 2.859375 -19.96875 C 2.859375 -23.007812 3.28125 -25.789062 4.125 -28.3125 C 4.976562 -30.84375 6.226562 -33.035156 7.875 -34.890625 C 9.53125 -36.753906 11.570312 -38.191406 14 -39.203125 C 16.425781 -40.222656 19.203125 -40.734375 22.328125 -40.734375 C 24.265625 -40.734375 26.3125 -40.507812 28.46875 -40.0625 C 30.625 -39.613281 32.722656 -38.894531 34.765625 -37.90625 L 31.453125 -29.359375 C 29.984375 -30.054688 28.5 -30.640625 27 -31.109375 C 25.5 -31.585938 23.90625 -31.828125 22.21875 -31.828125 Z M 22.21875 -31.828125 " />
            </g>
        </g>
        <g style="fill:#39b54a;fill-opacity:0.4;">
            <g transform="translate(325.594617, 295.685885)">
                <path style="stroke:none"
                    d="M 38.640625 0 L 26.390625 0 L 18.453125 -15.359375 L 15.25 -13.4375 L 15.25 0 L 4.34375 0 L 4.34375 -40.15625 L 15.25 -40.15625 L 15.25 -22.71875 C 15.707031 -23.59375 16.234375 -24.46875 16.828125 -25.34375 C 17.421875 -26.226562 18 -27.0625 18.5625 -27.84375 L 27 -40.15625 L 38.859375 -40.15625 L 26.203125 -22.171875 Z M 38.640625 0 " />
            </g>
        </g>
        <g style="fill:#00994b;fill-opacity:1;">
            <g transform="translate(153.789418, 295.685885)">
                <path style="stroke:none"
                    d="M 22.0625 0 L 11.203125 0 L 11.203125 -31.28125 L 1.40625 -31.28125 L 1.40625 -40.15625 L 31.828125 -40.15625 L 31.828125 -31.28125 L 22.0625 -31.28125 Z M 22.0625 0 " />
            </g>
        </g>
        <g style="fill:#00994b;fill-opacity:1;">
            <g transform="translate(192.813527, 295.685885)">
                <path style="stroke:none"
                    d="M 17.5 -40.15625 C 21.144531 -40.15625 24.175781 -39.707031 26.59375 -38.8125 C 29.007812 -37.925781 30.820312 -36.601562 32.03125 -34.84375 C 33.25 -33.09375 33.859375 -30.910156 33.859375 -28.296875 C 33.859375 -26.660156 33.582031 -25.171875 33.03125 -23.828125 C 32.488281 -22.492188 31.707031 -21.300781 30.6875 -20.25 C 29.675781 -19.195312 28.460938 -18.28125 27.046875 -17.5 L 38.75 0 L 26.453125 0 L 17.9375 -14.609375 L 15.1875 -14.609375 L 15.1875 0 L 4.34375 0 L 4.34375 -40.15625 Z M 17.328125 -31.9375 L 15.1875 -31.9375 L 15.1875 -22.765625 L 17.21875 -22.765625 C 18.882812 -22.765625 20.25 -23.128906 21.3125 -23.859375 C 22.375 -24.597656 22.90625 -25.910156 22.90625 -27.796875 C 22.90625 -29.097656 22.460938 -30.113281 21.578125 -30.84375 C 20.703125 -31.570312 19.285156 -31.9375 17.328125 -31.9375 Z M 17.328125 -31.9375 " />
            </g>
        </g>
        <g style="fill:#00994b;fill-opacity:1;">
            <g transform="translate(236.671102, 295.685885)">
                <path style="stroke:none"
                    d="M 28.96875 0 L 27 -7.53125 L 13.953125 -7.53125 L 11.921875 0 L 0 0 L 13.09375 -40.3125 L 27.578125 -40.3125 L 40.84375 0 Z M 24.75 -16.421875 L 23.015625 -23.015625 C 22.828125 -23.734375 22.5625 -24.753906 22.21875 -26.078125 C 21.875 -27.398438 21.53125 -28.769531 21.1875 -30.1875 C 20.851562 -31.613281 20.59375 -32.785156 20.40625 -33.703125 C 20.238281 -32.785156 20.003906 -31.65625 19.703125 -30.3125 C 19.398438 -28.96875 19.085938 -27.632812 18.765625 -26.3125 C 18.453125 -24.988281 18.175781 -23.890625 17.9375 -23.015625 L 16.203125 -16.421875 Z M 24.75 -16.421875 " />
            </g>
        </g>
        <g style="fill:#00994b;fill-opacity:1;">
            <g transform="translate(283.302426, 295.685885)">
                <path style="stroke:none"
                    d="M 22.21875 -31.828125 C 20.9375 -31.828125 19.789062 -31.554688 18.78125 -31.015625 C 17.78125 -30.484375 16.921875 -29.703125 16.203125 -28.671875 C 15.492188 -27.648438 14.945312 -26.398438 14.5625 -24.921875 C 14.1875 -23.453125 14 -21.78125 14 -19.90625 C 14 -17.382812 14.320312 -15.257812 14.96875 -13.53125 C 15.613281 -11.8125 16.585938 -10.515625 17.890625 -9.640625 C 19.203125 -8.765625 20.847656 -8.328125 22.828125 -8.328125 C 24.617188 -8.328125 26.34375 -8.570312 28 -9.0625 C 29.65625 -9.5625 31.328125 -10.15625 33.015625 -10.84375 L 33.015625 -1.671875 C 31.234375 -0.890625 29.414062 -0.328125 27.5625 0.015625 C 25.707031 0.367188 23.734375 0.546875 21.640625 0.546875 C 17.285156 0.546875 13.71875 -0.316406 10.9375 -2.046875 C 8.164062 -3.773438 6.125 -6.175781 4.8125 -9.25 C 3.507812 -12.332031 2.859375 -15.90625 2.859375 -19.96875 C 2.859375 -23.007812 3.28125 -25.789062 4.125 -28.3125 C 4.976562 -30.84375 6.226562 -33.035156 7.875 -34.890625 C 9.53125 -36.753906 11.570312 -38.191406 14 -39.203125 C 16.425781 -40.222656 19.203125 -40.734375 22.328125 -40.734375 C 24.265625 -40.734375 26.3125 -40.507812 28.46875 -40.0625 C 30.625 -39.613281 32.722656 -38.894531 34.765625 -37.90625 L 31.453125 -29.359375 C 29.984375 -30.054688 28.5 -30.640625 27 -31.109375 C 25.5 -31.585938 23.90625 -31.828125 22.21875 -31.828125 Z M 22.21875 -31.828125 " />
            </g>
        </g>
        <g style="fill:#00994b;fill-opacity:1;">
            <g transform="translate(325.594617, 295.685885)">
                <path style="stroke:none"
                    d="M 38.640625 0 L 26.390625 0 L 18.453125 -15.359375 L 15.25 -13.4375 L 15.25 0 L 4.34375 0 L 4.34375 -40.15625 L 15.25 -40.15625 L 15.25 -22.71875 C 15.707031 -23.59375 16.234375 -24.46875 16.828125 -25.34375 C 17.421875 -26.226562 18 -27.0625 18.5625 -27.84375 L 27 -40.15625 L 38.859375 -40.15625 L 26.203125 -22.171875 Z M 38.640625 0 " />
            </g>
        </g>
        <g style="fill:#ffffff;fill-opacity:1;">
            <g transform="translate(57.889886, 322.262522)">
                <path style="stroke:none"
                    d="M 12.90625 1.078125 C 12.539062 1.503906 12.117188 1.828125 11.640625 2.046875 C 11.160156 2.265625 10.632812 2.375 10.0625 2.375 C 9.320312 2.375 8.640625 2.203125 8.015625 1.859375 C 7.398438 1.523438 6.695312 0.945312 5.90625 0.125 C 4.894531 0.0390625 3.992188 -0.25 3.203125 -0.75 C 2.410156 -1.25 1.789062 -1.90625 1.34375 -2.71875 C 0.90625 -3.53125 0.6875 -4.429688 0.6875 -5.421875 C 0.6875 -6.472656 0.9375 -7.421875 1.4375 -8.265625 C 1.945312 -9.117188 2.644531 -9.785156 3.53125 -10.265625 C 4.414062 -10.753906 5.410156 -11 6.515625 -11 C 7.617188 -11 8.613281 -10.753906 9.5 -10.265625 C 10.394531 -9.785156 11.09375 -9.125 11.59375 -8.28125 C 12.101562 -7.4375 12.359375 -6.484375 12.359375 -5.421875 C 12.359375 -4.566406 12.1875 -3.773438 11.84375 -3.046875 C 11.5 -2.316406 11.019531 -1.695312 10.40625 -1.1875 C 9.800781 -0.675781 9.097656 -0.304688 8.296875 -0.078125 C 8.597656 0.242188 8.890625 0.476562 9.171875 0.625 C 9.460938 0.769531 9.773438 0.84375 10.109375 0.84375 C 10.828125 0.84375 11.445312 0.550781 11.96875 -0.03125 Z M 2.703125 -5.421875 C 2.703125 -4.691406 2.867188 -4.035156 3.203125 -3.453125 C 3.535156 -2.867188 3.988281 -2.414062 4.5625 -2.09375 C 5.144531 -1.769531 5.796875 -1.609375 6.515625 -1.609375 C 7.242188 -1.609375 7.894531 -1.769531 8.46875 -2.09375 C 9.050781 -2.414062 9.503906 -2.867188 9.828125 -3.453125 C 10.160156 -4.035156 10.328125 -4.691406 10.328125 -5.421875 C 10.328125 -6.140625 10.160156 -6.789062 9.828125 -7.375 C 9.503906 -7.957031 9.050781 -8.410156 8.46875 -8.734375 C 7.894531 -9.066406 7.242188 -9.234375 6.515625 -9.234375 C 5.796875 -9.234375 5.144531 -9.066406 4.5625 -8.734375 C 3.988281 -8.410156 3.535156 -7.957031 3.203125 -7.375 C 2.867188 -6.789062 2.703125 -6.140625 2.703125 -5.421875 Z M 2.703125 -5.421875 " />
            </g>
        </g>
        <g style="fill:#ffffff;fill-opacity:1;">
            <g transform="translate(72.111546, 322.262522)">
                <path style="stroke:none"
                    d="M 6.109375 0.15625 C 4.617188 0.15625 3.453125 -0.265625 2.609375 -1.109375 C 1.773438 -1.953125 1.359375 -3.15625 1.359375 -4.71875 L 1.359375 -10.84375 L 3.375 -10.84375 L 3.375 -4.796875 C 3.375 -2.671875 4.289062 -1.609375 6.125 -1.609375 C 7.957031 -1.609375 8.875 -2.671875 8.875 -4.796875 L 8.875 -10.84375 L 10.859375 -10.84375 L 10.859375 -4.71875 C 10.859375 -3.15625 10.441406 -1.953125 9.609375 -1.109375 C 8.773438 -0.265625 7.609375 0.15625 6.109375 0.15625 Z M 6.109375 0.15625 " />
            </g>
        </g>
        <g style="fill:#ffffff;fill-opacity:1;">
            <g transform="translate(85.512152, 322.262522)">
                <path style="stroke:none"
                    d="M 9.578125 -1.6875 L 9.578125 0 L 1.453125 0 L 1.453125 -10.84375 L 9.375 -10.84375 L 9.375 -9.15625 L 3.46875 -9.15625 L 3.46875 -6.328125 L 8.703125 -6.328125 L 8.703125 -4.671875 L 3.46875 -4.671875 L 3.46875 -1.6875 Z M 9.578125 -1.6875 " />
            </g>
        </g>
        <g style="fill:#ffffff;fill-opacity:1;">
            <g transform="translate(97.06927, 322.262522)">
                <path style="stroke:none"
                    d="M 1.453125 -10.84375 L 3.46875 -10.84375 L 3.46875 0 L 1.453125 0 Z M 1.453125 -10.84375 " />
            </g>
        </g>
        <g style="fill:#ffffff;fill-opacity:1;">
            <g transform="translate(103.188868, 322.262522)">
                <path style="stroke:none"
                    d="M 11.40625 0 L 11.390625 -7.1875 L 7.828125 -1.234375 L 6.9375 -1.234375 L 3.375 -7.09375 L 3.375 0 L 1.453125 0 L 1.453125 -10.84375 L 3.109375 -10.84375 L 7.421875 -3.65625 L 11.640625 -10.84375 L 13.296875 -10.84375 L 13.3125 0 Z M 11.40625 0 " />
            </g>
        </g>
        <g style="fill:#ffffff;fill-opacity:1;">
            <g transform="translate(119.16107, 322.262522)">
                <path style="stroke:none"
                    d="M 8.484375 -2.515625 L 3.0625 -2.515625 L 2 0 L -0.078125 0 L 4.796875 -10.84375 L 6.78125 -10.84375 L 11.671875 0 L 9.5625 0 Z M 7.8125 -4.09375 L 5.78125 -8.828125 L 3.75 -4.09375 Z M 7.8125 -4.09375 " />
            </g>
        </g>
        <g style="fill:#ffffff;fill-opacity:1;">
            <g transform="translate(131.942018, 322.262522)">
                <path style="stroke:none"
                    d="M 1.453125 -10.84375 L 6.1875 -10.84375 C 7.34375 -10.84375 8.367188 -10.613281 9.265625 -10.15625 C 10.171875 -9.707031 10.867188 -9.070312 11.359375 -8.25 C 11.859375 -7.4375 12.109375 -6.492188 12.109375 -5.421875 C 12.109375 -4.347656 11.859375 -3.398438 11.359375 -2.578125 C 10.867188 -1.753906 10.171875 -1.117188 9.265625 -0.671875 C 8.367188 -0.222656 7.34375 0 6.1875 0 L 1.453125 0 Z M 6.09375 -1.703125 C 6.894531 -1.703125 7.597656 -1.851562 8.203125 -2.15625 C 8.804688 -2.457031 9.269531 -2.890625 9.59375 -3.453125 C 9.914062 -4.015625 10.078125 -4.671875 10.078125 -5.421875 C 10.078125 -6.160156 9.914062 -6.8125 9.59375 -7.375 C 9.269531 -7.9375 8.804688 -8.367188 8.203125 -8.671875 C 7.597656 -8.984375 6.894531 -9.140625 6.09375 -9.140625 L 3.46875 -9.140625 L 3.46875 -1.703125 Z M 6.09375 -1.703125 " />
            </g>
        </g>
        <g style="fill:#ffffff;fill-opacity:1;">
            <g transform="translate(145.915817, 322.262522)">
                <path style="stroke:none"
                    d="M 8.484375 -2.515625 L 3.0625 -2.515625 L 2 0 L -0.078125 0 L 4.796875 -10.84375 L 6.78125 -10.84375 L 11.671875 0 L 9.5625 0 Z M 7.8125 -4.09375 L 5.78125 -8.828125 L 3.75 -4.09375 Z M 7.8125 -4.09375 " />
            </g>
        </g>
        <g style="fill:#ffffff;fill-opacity:1;">
            <g transform="translate(158.696764, 322.262522)">
                <path style="stroke:none"
                    d="M 4.8125 0.15625 C 3.976562 0.15625 3.171875 0.0351562 2.390625 -0.203125 C 1.609375 -0.441406 0.992188 -0.753906 0.546875 -1.140625 L 1.234375 -2.703125 C 1.679688 -2.359375 2.226562 -2.070312 2.875 -1.84375 C 3.519531 -1.625 4.164062 -1.515625 4.8125 -1.515625 C 5.613281 -1.515625 6.210938 -1.644531 6.609375 -1.90625 C 7.015625 -2.164062 7.21875 -2.503906 7.21875 -2.921875 C 7.21875 -3.234375 7.101562 -3.488281 6.875 -3.6875 C 6.65625 -3.894531 6.375 -4.050781 6.03125 -4.15625 C 5.695312 -4.269531 5.234375 -4.398438 4.640625 -4.546875 C 3.816406 -4.742188 3.148438 -4.941406 2.640625 -5.140625 C 2.128906 -5.335938 1.691406 -5.644531 1.328125 -6.0625 C 0.960938 -6.476562 0.78125 -7.039062 0.78125 -7.75 C 0.78125 -8.351562 0.941406 -8.898438 1.265625 -9.390625 C 1.585938 -9.878906 2.078125 -10.269531 2.734375 -10.5625 C 3.390625 -10.851562 4.191406 -11 5.140625 -11 C 5.796875 -11 6.441406 -10.914062 7.078125 -10.75 C 7.722656 -10.582031 8.28125 -10.34375 8.75 -10.03125 L 8.109375 -8.46875 C 7.640625 -8.75 7.144531 -8.960938 6.625 -9.109375 C 6.113281 -9.253906 5.613281 -9.328125 5.125 -9.328125 C 4.332031 -9.328125 3.738281 -9.191406 3.34375 -8.921875 C 2.957031 -8.648438 2.765625 -8.289062 2.765625 -7.84375 C 2.765625 -7.539062 2.875 -7.289062 3.09375 -7.09375 C 3.320312 -6.894531 3.601562 -6.738281 3.9375 -6.625 C 4.28125 -6.507812 4.75 -6.378906 5.34375 -6.234375 C 6.144531 -6.054688 6.800781 -5.863281 7.3125 -5.65625 C 7.832031 -5.457031 8.273438 -5.148438 8.640625 -4.734375 C 9.015625 -4.328125 9.203125 -3.769531 9.203125 -3.0625 C 9.203125 -2.46875 9.035156 -1.925781 8.703125 -1.4375 C 8.378906 -0.957031 7.882812 -0.570312 7.21875 -0.28125 C 6.5625 0.0078125 5.757812 0.15625 4.8125 0.15625 Z M 4.8125 0.15625 " />
            </g>
        </g>
        <g style="fill:#ffffff;fill-opacity:1;">
            <g transform="translate(169.618734, 322.262522)">
                <path style="stroke:none" d="" />
            </g>
        </g>
        <g style="fill:#ffffff;fill-opacity:1;">
            <g transform="translate(175.072193, 322.262522)">
                <path style="stroke:none"
                    d="M 4.8125 0.15625 C 3.976562 0.15625 3.171875 0.0351562 2.390625 -0.203125 C 1.609375 -0.441406 0.992188 -0.753906 0.546875 -1.140625 L 1.234375 -2.703125 C 1.679688 -2.359375 2.226562 -2.070312 2.875 -1.84375 C 3.519531 -1.625 4.164062 -1.515625 4.8125 -1.515625 C 5.613281 -1.515625 6.210938 -1.644531 6.609375 -1.90625 C 7.015625 -2.164062 7.21875 -2.503906 7.21875 -2.921875 C 7.21875 -3.234375 7.101562 -3.488281 6.875 -3.6875 C 6.65625 -3.894531 6.375 -4.050781 6.03125 -4.15625 C 5.695312 -4.269531 5.234375 -4.398438 4.640625 -4.546875 C 3.816406 -4.742188 3.148438 -4.941406 2.640625 -5.140625 C 2.128906 -5.335938 1.691406 -5.644531 1.328125 -6.0625 C 0.960938 -6.476562 0.78125 -7.039062 0.78125 -7.75 C 0.78125 -8.351562 0.941406 -8.898438 1.265625 -9.390625 C 1.585938 -9.878906 2.078125 -10.269531 2.734375 -10.5625 C 3.390625 -10.851562 4.191406 -11 5.140625 -11 C 5.796875 -11 6.441406 -10.914062 7.078125 -10.75 C 7.722656 -10.582031 8.28125 -10.34375 8.75 -10.03125 L 8.109375 -8.46875 C 7.640625 -8.75 7.144531 -8.960938 6.625 -9.109375 C 6.113281 -9.253906 5.613281 -9.328125 5.125 -9.328125 C 4.332031 -9.328125 3.738281 -9.191406 3.34375 -8.921875 C 2.957031 -8.648438 2.765625 -8.289062 2.765625 -7.84375 C 2.765625 -7.539062 2.875 -7.289062 3.09375 -7.09375 C 3.320312 -6.894531 3.601562 -6.738281 3.9375 -6.625 C 4.28125 -6.507812 4.75 -6.378906 5.34375 -6.234375 C 6.144531 -6.054688 6.800781 -5.863281 7.3125 -5.65625 C 7.832031 -5.457031 8.273438 -5.148438 8.640625 -4.734375 C 9.015625 -4.328125 9.203125 -3.769531 9.203125 -3.0625 C 9.203125 -2.46875 9.035156 -1.925781 8.703125 -1.4375 C 8.378906 -0.957031 7.882812 -0.570312 7.21875 -0.28125 C 6.5625 0.0078125 5.757812 0.15625 4.8125 0.15625 Z M 4.8125 0.15625 " />
            </g>
        </g>
        <g style="fill:#ffffff;fill-opacity:1;">
            <g transform="translate(185.994163, 322.262522)">
                <path style="stroke:none"
                    d="M 6.515625 0.15625 C 5.410156 0.15625 4.414062 -0.0820312 3.53125 -0.5625 C 2.644531 -1.039062 1.945312 -1.707031 1.4375 -2.5625 C 0.9375 -3.414062 0.6875 -4.367188 0.6875 -5.421875 C 0.6875 -6.472656 0.9375 -7.421875 1.4375 -8.265625 C 1.945312 -9.117188 2.644531 -9.785156 3.53125 -10.265625 C 4.414062 -10.753906 5.410156 -11 6.515625 -11 C 7.617188 -11 8.613281 -10.753906 9.5 -10.265625 C 10.394531 -9.785156 11.09375 -9.125 11.59375 -8.28125 C 12.101562 -7.4375 12.359375 -6.484375 12.359375 -5.421875 C 12.359375 -4.359375 12.101562 -3.398438 11.59375 -2.546875 C 11.09375 -1.703125 10.394531 -1.039062 9.5 -0.5625 C 8.613281 -0.0820312 7.617188 0.15625 6.515625 0.15625 Z M 6.515625 -1.609375 C 7.242188 -1.609375 7.894531 -1.769531 8.46875 -2.09375 C 9.050781 -2.414062 9.503906 -2.867188 9.828125 -3.453125 C 10.160156 -4.035156 10.328125 -4.691406 10.328125 -5.421875 C 10.328125 -6.140625 10.160156 -6.789062 9.828125 -7.375 C 9.503906 -7.957031 9.050781 -8.410156 8.46875 -8.734375 C 7.894531 -9.066406 7.242188 -9.234375 6.515625 -9.234375 C 5.796875 -9.234375 5.144531 -9.066406 4.5625 -8.734375 C 3.988281 -8.410156 3.535156 -7.957031 3.203125 -7.375 C 2.867188 -6.789062 2.703125 -6.140625 2.703125 -5.421875 C 2.703125 -4.691406 2.867188 -4.035156 3.203125 -3.453125 C 3.535156 -2.867188 3.988281 -2.414062 4.5625 -2.09375 C 5.144531 -1.769531 5.796875 -1.609375 6.515625 -1.609375 Z M 6.515625 -1.609375 " />
            </g>
        </g>
        <g style="fill:#ffffff;fill-opacity:1;">
            <g transform="translate(200.215823, 322.262522)">
                <path style="stroke:none"
                    d="M 9.140625 -5.640625 C 9.734375 -5.441406 10.207031 -5.113281 10.5625 -4.65625 C 10.914062 -4.195312 11.09375 -3.625 11.09375 -2.9375 C 11.09375 -2 10.726562 -1.273438 10 -0.765625 C 9.28125 -0.253906 8.226562 0 6.84375 0 L 1.453125 0 L 1.453125 -10.84375 L 6.53125 -10.84375 C 7.8125 -10.84375 8.796875 -10.59375 9.484375 -10.09375 C 10.179688 -9.59375 10.53125 -8.898438 10.53125 -8.015625 C 10.53125 -7.484375 10.40625 -7.007812 10.15625 -6.59375 C 9.90625 -6.1875 9.566406 -5.867188 9.140625 -5.640625 Z M 3.46875 -9.265625 L 3.46875 -6.265625 L 6.3125 -6.265625 C 7.019531 -6.265625 7.5625 -6.390625 7.9375 -6.640625 C 8.3125 -6.898438 8.5 -7.269531 8.5 -7.75 C 8.5 -8.25 8.3125 -8.625 7.9375 -8.875 C 7.5625 -9.132812 7.019531 -9.265625 6.3125 -9.265625 Z M 6.71875 -1.578125 C 8.28125 -1.578125 9.0625 -2.097656 9.0625 -3.140625 C 9.0625 -4.179688 8.28125 -4.703125 6.71875 -4.703125 L 3.46875 -4.703125 L 3.46875 -1.578125 Z M 6.71875 -1.578125 " />
            </g>
        </g>
        <g style="fill:#ffffff;fill-opacity:1;">
            <g transform="translate(213.182676, 322.262522)">
                <path style="stroke:none" d="" />
            </g>
        </g>
        <g style="fill:#ffffff;fill-opacity:1;">
            <g transform="translate(218.636135, 322.262522)">
                <path style="stroke:none"
                    d="M 6.46875 0.15625 C 5.375 0.15625 4.382812 -0.0820312 3.5 -0.5625 C 2.625 -1.039062 1.9375 -1.703125 1.4375 -2.546875 C 0.9375 -3.398438 0.6875 -4.359375 0.6875 -5.421875 C 0.6875 -6.484375 0.9375 -7.4375 1.4375 -8.28125 C 1.945312 -9.125 2.640625 -9.785156 3.515625 -10.265625 C 4.398438 -10.753906 5.390625 -11 6.484375 -11 C 7.367188 -11 8.175781 -10.84375 8.90625 -10.53125 C 9.644531 -10.21875 10.269531 -9.769531 10.78125 -9.1875 L 9.46875 -7.953125 C 8.6875 -8.804688 7.722656 -9.234375 6.578125 -9.234375 C 5.835938 -9.234375 5.171875 -9.066406 4.578125 -8.734375 C 3.992188 -8.410156 3.535156 -7.957031 3.203125 -7.375 C 2.867188 -6.800781 2.703125 -6.148438 2.703125 -5.421875 C 2.703125 -4.679688 2.867188 -4.019531 3.203125 -3.4375 C 3.535156 -2.863281 3.992188 -2.414062 4.578125 -2.09375 C 5.171875 -1.769531 5.835938 -1.609375 6.578125 -1.609375 C 7.722656 -1.609375 8.6875 -2.035156 9.46875 -2.890625 L 10.78125 -1.65625 C 10.269531 -1.070312 9.644531 -0.625 8.90625 -0.3125 C 8.164062 0 7.351562 0.15625 6.46875 0.15625 Z M 6.46875 0.15625 " />
            </g>
        </g>
        <g style="fill:#ffffff;fill-opacity:1;">
            <g transform="translate(231.076275, 322.262522)">
                <path style="stroke:none"
                    d="M 6.515625 0.15625 C 5.410156 0.15625 4.414062 -0.0820312 3.53125 -0.5625 C 2.644531 -1.039062 1.945312 -1.707031 1.4375 -2.5625 C 0.9375 -3.414062 0.6875 -4.367188 0.6875 -5.421875 C 0.6875 -6.472656 0.9375 -7.421875 1.4375 -8.265625 C 1.945312 -9.117188 2.644531 -9.785156 3.53125 -10.265625 C 4.414062 -10.753906 5.410156 -11 6.515625 -11 C 7.617188 -11 8.613281 -10.753906 9.5 -10.265625 C 10.394531 -9.785156 11.09375 -9.125 11.59375 -8.28125 C 12.101562 -7.4375 12.359375 -6.484375 12.359375 -5.421875 C 12.359375 -4.359375 12.101562 -3.398438 11.59375 -2.546875 C 11.09375 -1.703125 10.394531 -1.039062 9.5 -0.5625 C 8.613281 -0.0820312 7.617188 0.15625 6.515625 0.15625 Z M 6.515625 -1.609375 C 7.242188 -1.609375 7.894531 -1.769531 8.46875 -2.09375 C 9.050781 -2.414062 9.503906 -2.867188 9.828125 -3.453125 C 10.160156 -4.035156 10.328125 -4.691406 10.328125 -5.421875 C 10.328125 -6.140625 10.160156 -6.789062 9.828125 -7.375 C 9.503906 -7.957031 9.050781 -8.410156 8.46875 -8.734375 C 7.894531 -9.066406 7.242188 -9.234375 6.515625 -9.234375 C 5.796875 -9.234375 5.144531 -9.066406 4.5625 -8.734375 C 3.988281 -8.410156 3.535156 -7.957031 3.203125 -7.375 C 2.867188 -6.789062 2.703125 -6.140625 2.703125 -5.421875 C 2.703125 -4.691406 2.867188 -4.035156 3.203125 -3.453125 C 3.535156 -2.867188 3.988281 -2.414062 4.5625 -2.09375 C 5.144531 -1.769531 5.796875 -1.609375 6.515625 -1.609375 Z M 6.515625 -1.609375 " />
            </g>
        </g>
        <g style="fill:#ffffff;fill-opacity:1;">
            <g transform="translate(245.297936, 322.262522)">
                <path style="stroke:none"
                    d="M 11.09375 -10.84375 L 11.09375 0 L 9.4375 0 L 3.453125 -7.34375 L 3.453125 0 L 1.453125 0 L 1.453125 -10.84375 L 3.109375 -10.84375 L 9.09375 -3.5 L 9.09375 -10.84375 Z M 11.09375 -10.84375 " />
            </g>
        </g>
        <g style="fill:#ffffff;fill-opacity:1;">
            <g transform="translate(259.023873, 322.262522)">
                <path style="stroke:none"
                    d="M 3.65625 -9.140625 L 0.0625 -9.140625 L 0.0625 -10.84375 L 9.265625 -10.84375 L 9.265625 -9.140625 L 5.671875 -9.140625 L 5.671875 0 L 3.65625 0 Z M 3.65625 -9.140625 " />
            </g>
        </g>
        <g style="fill:#ffffff;fill-opacity:1;">
            <g transform="translate(269.527566, 322.262522)">
                <path style="stroke:none"
                    d="M 8.546875 0 L 6.328125 -3.171875 C 6.234375 -3.160156 6.097656 -3.15625 5.921875 -3.15625 L 3.46875 -3.15625 L 3.46875 0 L 1.453125 0 L 1.453125 -10.84375 L 5.921875 -10.84375 C 6.859375 -10.84375 7.675781 -10.6875 8.375 -10.375 C 9.070312 -10.0625 9.601562 -9.613281 9.96875 -9.03125 C 10.34375 -8.457031 10.53125 -7.773438 10.53125 -6.984375 C 10.53125 -6.171875 10.332031 -5.46875 9.9375 -4.875 C 9.539062 -4.289062 8.96875 -3.851562 8.21875 -3.5625 L 10.71875 0 Z M 8.5 -6.984375 C 8.5 -7.671875 8.269531 -8.203125 7.8125 -8.578125 C 7.363281 -8.953125 6.703125 -9.140625 5.828125 -9.140625 L 3.46875 -9.140625 L 3.46875 -4.8125 L 5.828125 -4.8125 C 6.703125 -4.8125 7.363281 -5 7.8125 -5.375 C 8.269531 -5.757812 8.5 -6.296875 8.5 -6.984375 Z M 8.5 -6.984375 " />
            </g>
        </g>
        <g style="fill:#ffffff;fill-opacity:1;">
            <g transform="translate(282.029661, 322.262522)">
                <path style="stroke:none"
                    d="M 6.515625 0.15625 C 5.410156 0.15625 4.414062 -0.0820312 3.53125 -0.5625 C 2.644531 -1.039062 1.945312 -1.707031 1.4375 -2.5625 C 0.9375 -3.414062 0.6875 -4.367188 0.6875 -5.421875 C 0.6875 -6.472656 0.9375 -7.421875 1.4375 -8.265625 C 1.945312 -9.117188 2.644531 -9.785156 3.53125 -10.265625 C 4.414062 -10.753906 5.410156 -11 6.515625 -11 C 7.617188 -11 8.613281 -10.753906 9.5 -10.265625 C 10.394531 -9.785156 11.09375 -9.125 11.59375 -8.28125 C 12.101562 -7.4375 12.359375 -6.484375 12.359375 -5.421875 C 12.359375 -4.359375 12.101562 -3.398438 11.59375 -2.546875 C 11.09375 -1.703125 10.394531 -1.039062 9.5 -0.5625 C 8.613281 -0.0820312 7.617188 0.15625 6.515625 0.15625 Z M 6.515625 -1.609375 C 7.242188 -1.609375 7.894531 -1.769531 8.46875 -2.09375 C 9.050781 -2.414062 9.503906 -2.867188 9.828125 -3.453125 C 10.160156 -4.035156 10.328125 -4.691406 10.328125 -5.421875 C 10.328125 -6.140625 10.160156 -6.789062 9.828125 -7.375 C 9.503906 -7.957031 9.050781 -8.410156 8.46875 -8.734375 C 7.894531 -9.066406 7.242188 -9.234375 6.515625 -9.234375 C 5.796875 -9.234375 5.144531 -9.066406 4.5625 -8.734375 C 3.988281 -8.410156 3.535156 -7.957031 3.203125 -7.375 C 2.867188 -6.789062 2.703125 -6.140625 2.703125 -5.421875 C 2.703125 -4.691406 2.867188 -4.035156 3.203125 -3.453125 C 3.535156 -2.867188 3.988281 -2.414062 4.5625 -2.09375 C 5.144531 -1.769531 5.796875 -1.609375 6.515625 -1.609375 Z M 6.515625 -1.609375 " />
            </g>
        </g>
        <g style="fill:#ffffff;fill-opacity:1;">
            <g transform="translate(296.251334, 322.262522)">
                <path style="stroke:none"
                    d="M 1.453125 -10.84375 L 3.46875 -10.84375 L 3.46875 -1.703125 L 9.140625 -1.703125 L 9.140625 0 L 1.453125 0 Z M 1.453125 -10.84375 " />
            </g>
        </g>
        <g style="fill:#ffffff;fill-opacity:1;">
            <g transform="translate(306.708546, 322.262522)">
                <path style="stroke:none"
                    d="M 9.578125 -1.6875 L 9.578125 0 L 1.453125 0 L 1.453125 -10.84375 L 9.375 -10.84375 L 9.375 -9.15625 L 3.46875 -9.15625 L 3.46875 -6.328125 L 8.703125 -6.328125 L 8.703125 -4.671875 L 3.46875 -4.671875 L 3.46875 -1.6875 Z M 9.578125 -1.6875 " />
            </g>
        </g>
    </g>
</svg>