<?xml version="1.0" encoding="UTF-8"?>
<svg id="Camada_2" data-name="Camada 2" xmlns="http://www.w3.org/2000/svg" xmlns:xlink="http://www.w3.org/1999/xlink" viewBox="0 0 298.25 539.57">
  <defs>
    <style>
      .cls-1 {
        fill: #00994b;
      }

      .cls-2 {
        fill: url(#Gradiente_sem_nome_4);
      }
    </style>
    <linearGradient id="Gradiente_sem_nome_4" data-name="Gradiente sem nome 4" x1="149.88" y1="492.36" x2="148.18" y2="-5.55" gradientUnits="userSpaceOnUse">
      <stop offset="0" stop-color="#ff2018"/>
      <stop offset="1" stop-color="#ff8e1f"/>
    </linearGradient>
  </defs>
  <g id="Camada_1-2" data-name="Camada 1">
    <path class="cls-2" d="M197.01,189.69c6.46,5.98,15.99,5.33,22.79.34,14.81-10.87,15.21-40.13,10.35-56.12,51.52,44.01,81.75,116.65,61.99,183.36-38.93,62.4-89.02,43.36-141.1,78.73-24.95,17.86-40.79,44.43-43.97,75.18,0,0,.49,22.14.49,22.14C-161.84,151.61,163.79,152.43,130.7,0c49.75,29.14,80.49,78.79,68.45,137.86-3.03,15.29-15.84,39.14-2.13,51.84ZM225.87,274.98c0-41.1-33.32-74.42-74.42-74.42-97.47,3.37-99.94,145.4,0,148.84,41.1,0,74.42-33.32,74.42-74.42Z"/>
    <path class="cls-1" d="M275.44,364.33c.68.68-4.1,8.06-4.85,9.53-27.63,57.38-64.42,118.87-113.36,162.26-2.2,1.95-3.98,3.54-7.23,3.44-2.85-.09-7.91-4.64-9.99-6.81-18.75-19.56-18.59-60.92-7.52-85.39,23.76-52.53,77.38-52.57,122.94-73.02,6.82-3.06,13.04-7.34,20.01-10.01ZM145.48,497.26l62.02-73.85c-25.39,18.91-57.7,39.67-62.02,73.85Z"/>
  </g>
</svg>